PathFileType	4	(X/Y/Z)	C:/Users/beibeiliu/ov580/test_trc\sequence.8_training_dense_left.trc
DataRate	CameraRate	NumFrames	NumMarkers	Units	OrigDataRate	OrigDataStartFrame	OrigNumFrames
120	120	19	19	mm	120	1	375
Frame#	Time	ThumbCMC			ThumbMCP			ThumbIP			ThumbTip			IndexMCP			IndexPIP			IndexTip			MiddleMCP			MiddlePIP			MiddleTip			RingMCP			RingPIP			RingTip			PinkyMCP			PinkyPIP			PinkyTip			BackHand1			BackHand2			BackHand3	
		X0	Y0	Z0	X1	Y1	Z1	X2	Y2	Z2	X3	Y3	Z3	X4	Y4	Z4	X5	Y5	Z5	X6	Y6	Z6	X7	Y7	Z7	X8	Y8	Z8	X9	Y9	Z9	X10	Y10	Z10	X11	Y11	Z11	X12	Y12	Z12	X13	Y13	Z13	X14	Y14	Z14	X15	Y15	Z15	X16	Y16	Z16	X17	Y17	Z17	X18	Y18	Z18	
0	0	-168.129	-1.21152	18.7966	-153.185	-11.9826	1.4392	-136.518	-14.8065	-15.3797	-123.065	-18.5114	-32.0776	-171.547	0.809139	-50.2592	-163.978	-5.42274	-70.761	-156.768	-13.643	-96.9126	-192.82	0.880545	-59.5064	-192.997	-4.69385	-83.7045	-194.705	-14.7116	-108.146	-212.305	-1.04819	-55.9595	-214.464	-5.20233	-74.3464	-216.638	-12.9637	-95.0935	-237.034	-5.23409	-41.6209	-241.182	-9.30296	-55.4978	-244.872	-11.6672	-76.5655	-213.293	13.9861	-13.6416	-216.036	19.6155	16.7269	-189.3	18.0754	1.70196	
1	0.00833333	-171.708	-1.78145	16.4095	-154.654	-10.6748	-0.0538001	-143.899	-13.9398	-17.8358	-126.412	-17.4572	-32.6693	-174.02	1.49238	-52.0789	-167.52	-6.046	-75.6828	-162.096	-17.4496	-97.8792	-193.84	0.936543	-62.0012	-193.779	-4.96186	-81.6289	-196.387	-19.5507	-107.37	-218.492	0.110997	-54.258	-214.806	-7.01103	-75.1134	-216.466	-19.1284	-99.553	-235.623	-4.13689	-38.5116	-244.314	-10.7102	-61.1135	-247.855	-13.9089	-76.3537	-218.1	14.0778	-9.68581	-216.761	20.6474	14.5652	-190.404	17.4824	0.624297	
2	0.0166667	-173.725	-1.69552	18.5668	-158.67	-10.3038	2.08878	-141.381	-12.655	-19.8681	-131.484	-15.9965	-29.7608	-170.233	1.25875	-54.3633	-170.023	-5.81209	-73.4402	-161.254	-18.2684	-92.9477	-197.438	2.87441	-58.7378	-194.738	-6.6852	-82.4396	-193.681	-23.1346	-103.995	-214.371	0.947462	-52.1996	-215.309	-10.5236	-78.9083	-216.585	-24.208	-96.7048	-238.429	-2.77791	-40.0983	-243.938	-11.58	-59.5938	-244.083	-20.0062	-76.5157	-220.314	15.8889	-9.84278	-217.917	19.5615	15.1429	-193.975	18.4559	3.9757	
3	0.025	-171.581	0.610897	14.8686	-160.066	-8.16411	-0.828068	-144.917	-10.3521	-18.2126	-132.123	-13.4192	-27.7961	-174.915	2.79553	-53.878	-167.44	-7.12005	-75.7752	-169.16	-20.4974	-91.2585	-196.231	3.30645	-56.7711	-195.22	-9.74562	-83.5932	-195.906	-29.9144	-101.048	-214.833	0.688706	-54.6317	-216.021	-11.9373	-77.3127	-213.189	-25.5454	-90.8482	-234.245	-3.44299	-39.459	-238.653	-11.7086	-60.9737	-241.261	-23.0218	-77.6098	-220.232	15.0023	-11.9947	-223.76	19.9737	14.2221	-194.252	19.8165	1.86495	
4	0.0333333	-177.485	1.49625	18.3457	-159.303	-5.22112	-1.96669	-143.464	-7.2027	-15.8604	-129.889	-9.23927	-28.8405	-174.319	5.71092	-50.3345	-171.315	-4.45154	-71.9149	-166.386	-23.3888	-88.8857	-194.576	3.12381	-61.8993	-192.683	-13.9552	-83.3704	-193.01	-33.8831	-95.9903	-220.34	-0.792229	-53.5606	-214.136	-14.8165	-77.6586	-212.405	-35.1455	-89.2702	-239.952	-5.87504	-41.4438	-236.139	-13.5818	-59.684	-236.912	-28.721	-76.5677	-222.965	16.755	-11.0348	-219.985	20.6615	13.9421	-197.02	19.987	2.29325	
5	0.0416667	-177.766	3.6548	15.0556	-161.487	-2.51483	-0.768005	-146.225	-2.74158	-19.7169	-130.504	-4.89042	-29.9567	-175.47	7.24557	-48.7174	-175.626	-7.99597	-74.2763	-168.917	-26.9632	-85.2553	-200.034	2.71728	-60.3106	-194.412	-12.6379	-80.9445	-195.576	-39.6788	-90.3418	-221.742	-1.03678	-53.2141	-216.808	-17.6981	-76.0255	-212.58	-37.0173	-83.7423	-238.133	-5.04197	-41.2175	-235.814	-14.1787	-58.1823	-232.619	-33.6549	-71.894	-221.854	16.6533	-6.42629	-224.5	19.226	16.6348	-195.904	20.9902	4.86914	
6	0.05	-176.888	5.35219	16.5786	-160.292	-0.317547	-0.447017	-149.67	-2.5489	-15.7147	-135.102	-1.63318	-29.5163	-181.02	7.19084	-53.3223	-174.509	-4.98563	-70.3048	-173.369	-29.6789	-81.2803	-201.979	3.22466	-60.1705	-195.073	-11.7295	-78.2963	-192.804	-44.3128	-84.0706	-218.132	0.667087	-50.3769	-215.755	-16.9848	-72.4508	-205.723	-43.0549	-78.0727	-240.415	-6.10964	-41.3016	-234.885	-20.1993	-61.3708	-227.074	-37.6212	-69.4423	-222.428	14.907	-5.14322	-228.042	18.8607	19.0464	-201.385	23.0101	6.84676	
7	0.0583333	-179.011	6.04291	21.3354	-163.074	0.604994	2.07678	-147.065	3.58699	-18.0054	-133.595	3.04869	-28.2998	-182.367	9.56751	-52.3321	-175.963	-9.17127	-72.5377	-176.288	-32.38	-77.0386	-201.382	3.43796	-59.5409	-196.512	-15.1344	-76.8917	-188.803	-48.5939	-72.1059	-218.684	0.223794	-51.8346	-217.131	-21.3609	-70.6864	-207.435	-44.4625	-68.586	-240.234	-6.34944	-44.3074	-233.641	-19.2058	-59.0084	-220.372	-42.7958	-62.9673	-229.539	14.7875	-5.61924	-229.461	18.5107	17.3869	-200.388	24.8473	6.50658	
8	0.0666667	-180.345	6.90686	17.8801	-164.892	3.50027	-1.51512	-152.874	5.57048	-18.2967	-136.598	8.49704	-33.6836	-184.053	10.5802	-50.6852	-178.499	-11.2257	-72.5017	-171.786	-38.8353	-68.5099	-202.195	4.31242	-56.8515	-198.213	-22.3908	-75.2991	-191.315	-48.3783	-62.1042	-220.827	-2.53072	-54.0926	-215.251	-25.3657	-67.8317	-201.689	-47.6254	-55.1453	-241.165	-7.46653	-40.5059	-232.409	-22.0767	-57.9449	-217.822	-44.9343	-55.6865	-228.054	14.4054	-7.56723	-231.705	17.1167	19.8844	-203.688	22.604	6.80695	
9	0.075	-183.975	8.65685	18.4834	-162.516	8.18703	-0.545573	-150.273	11.2053	-15.8235	-140.999	11.4507	-31.9637	-184.677	9.76566	-52.8901	-182.452	-9.52708	-70.5648	-175.635	-38.5621	-63.3058	-201.734	1.891	-59.5481	-194.464	-23.5475	-72.5553	-190.102	-46.9465	-52.6231	-218.227	-5.05248	-55.5057	-215.167	-29.8494	-64.4779	-202.298	-46.9049	-44.3298	-237.044	-8.4879	-40.3611	-229.114	-29.5039	-56.014	-213.161	-44.1818	-45.644	-232.685	13.9587	-8.26296	-232.845	17.8133	14.9801	-204.971	24.049	6.53347	
10	0.0833333	-183.319	12.5699	16.0101	-166.3	11.4301	-1.07821	-153.166	15.409	-19.0332	-139.462	19.3047	-33.0993	-188.439	7.45753	-54.4907	-180.085	-12.9844	-68.4687	-176.105	-39.9499	-52.812	-203.489	-2.1854	-60.879	-195.032	-26.8139	-67.9501	-192.966	-46.1992	-42.2857	-224.497	-10.736	-53.295	-212.481	-34.4043	-58.9707	-200.173	-44.3981	-32.5673	-236.922	-12.1717	-41.1098	-225.76	-33.6778	-52.7466	-210.713	-42.9677	-35.5348	-234.124	13.0945	-8.71545	-233.332	16.1876	13.4851	-209.066	24.9609	4.15869	
11	0.0916667	-187.647	11.2835	17.1775	-166.041	14.5091	-0.0325605	-154.28	19.7891	-18.0226	-145.28	22.3305	-33.1144	-188.398	6.54858	-55.5653	-179.868	-17.831	-65.6883	-176.222	-37.4009	-48.2309	-205.307	-3.54571	-57.9231	-196.16	-32.8741	-62.97	-190.627	-43.0155	-30.8746	-223.903	-13.0521	-50.8281	-208.499	-35.7249	-53.543	-201.619	-42.8696	-26.9282	-234.271	-18.2153	-45.0907	-223.12	-35.7942	-47.9251	-209.506	-41.9336	-23.6553	-236.066	13.3168	-11.3221	-237.679	15.6715	14.9573	-207.752	24.032	1.90909	
12	0.1	-189.8	15.0074	12.3099	-173.015	14.6906	-4.2911	-156.503	23.1165	-19.4356	-145.317	29.0952	-32.326	-188.681	5.57142	-56.8077	-177.958	-17.9576	-63.2924	-174.694	-34.9368	-42.4348	-203.764	-5.86769	-58.5959	-194.296	-34.7346	-57.6361	-191.407	-40.99	-28.3852	-224.346	-17.6657	-51.0076	-203.841	-38.298	-46.067	-200.779	-37.1524	-19.0949	-237.674	-22.3539	-40.2116	-221.114	-39.9621	-41.5252	-207.011	-35.5848	-15.805	-233.013	11.8078	-12.7863	-236.46	15.1838	17.1414	-212.045	23.6988	3.43129	
13	0.108333	-188.999	15.5546	16.0662	-171.375	20.5734	-4.36786	-160.165	28.4771	-21.9653	-148.864	33.6574	-34.918	-194.263	6.54369	-53.6921	-181.541	-16.9514	-62.4289	-176.473	-32.6391	-33.6702	-205.813	-7.84954	-59.1179	-192.432	-33.5462	-54.3525	-189.828	-35.8689	-24.7729	-220.695	-19.2041	-50.5144	-206.104	-38.0642	-43.5962	-200.5	-33.5911	-16.2008	-232.026	-24.7267	-41.8206	-215.78	-41.0115	-32.3137	-207.662	-30.1105	-11.7493	-235.516	10.7764	-12.4951	-238.317	16.2064	15.0159	-215.003	26.5636	5.4813	
14	0.116667	-189.706	19.3351	15.8538	-174.656	21.9412	-1.62603	-163.088	30.5669	-20.3091	-154.837	36.5219	-34.6274	-194.86	5.474	-55.3905	-182.985	-17.8536	-58.9938	-177.78	-28.1516	-30.6654	-206.466	-5.09587	-55.4707	-191.731	-31.2195	-52.4644	-192.598	-28.6574	-17.5413	-220.463	-18.817	-48.383	-203.926	-37.967	-38.4532	-200.348	-29.8644	-14.1642	-234.048	-28.859	-39.5954	-216.796	-41.3698	-31.8566	-209.446	-27.4683	-5.36652	-241.386	9.95123	-9.42101	-237.977	13.6735	15.2644	-217.794	25.8993	3.14608	
15	0.125	-190.937	19.7033	15.3075	-177.737	24.0449	-5.29787	-166.805	35.6507	-24.607	-156.491	39.4527	-32.9331	-194.487	8.01118	-53.7596	-179.877	-16.0476	-56.5449	-180.707	-25.5648	-24.8295	-210.492	-5.83287	-54.2617	-190.278	-31.3947	-47.7258	-191.644	-27.4128	-17.5717	-222.807	-18.5312	-46.5442	-203.759	-35.5145	-37.4826	-203.018	-27.8744	-10.6366	-234.905	-28.8381	-37.6023	-214.648	-38.6417	-29.2964	-209.159	-24.2816	-6.40113	-239.546	9.85267	-11.3745	-239.674	13.9098	16.7708	-218.019	28.7859	1.14345	
16	0.133333	-192.194	21.1647	16.5601	-178.972	27.9876	-7.63986	-170.998	35.8183	-23.0468	-160.83	46.2832	-36.546	-197.664	8.67704	-52.257	-183.835	-18.5059	-52.3492	-180.961	-22.4786	-24.458	-212.932	-6.94312	-51.9336	-195.02	-32.5594	-46.4126	-194.793	-25.4071	-15.5935	-219.662	-18.6026	-45.7123	-203.795	-37.4314	-33.111	-205.104	-23.6703	-6.13944	-232.737	-29.317	-36.3374	-214.966	-38.9681	-27.5473	-210.947	-24.9149	-6.46288	-242.156	9.30889	-6.93754	-240.906	14.8835	15.4145	-221.536	27.4338	0.736368	
17	0.141667	-192.99	23.3895	14.3021	-181.843	26.0796	-4.24047	-173.307	36.7809	-22.2396	-163.074	47.8373	-34.7037	-196.322	9.42586	-52.0674	-184.021	-18.7053	-50.0207	-182.061	-18.7318	-22.2547	-209.929	-10.6214	-53.9213	-192.779	-30.6572	-44.8733	-197.518	-19.9962	-11.763	-222.018	-22.3575	-45.4069	-204.21	-37.8508	-33.5654	-202.705	-20.7698	-8.51403	-233.407	-27.6923	-35.151	-213.36	-39.9524	-23.3923	-210.758	-26.1761	-5.66466	-241.872	9.34966	-9.72631	-243.592	11.9146	15.3186	-224.205	25.6214	2.36889	
18	0.15	-195.273	25.071	12.6101	-185.533	27.2708	-4.5033	-175.713	41.4301	-25.9113	-170.145	48.1655	-37.5683	-198.973	7.08406	-50.9182	-182.382	-17.6537	-49.8072	-185.127	-16.9339	-19.479	-211.351	-9.43761	-52.3289	-193.405	-33.7927	-39.3614	-196.467	-23.3067	-12.6873	-222.792	-22.6456	-43.7757	-202.909	-39.0424	-29.1395	-205.444	-20.5253	-4.6162	-233.278	-31.1565	-33.505	-210.854	-38.6766	-22.8988	-209.272	-24.3168	-5.32813	-242.118	7.01932	-7.78158	-245.486	11.0663	18.4682	-225.447	22.2756	3.17757	
